<?xml version="1.0" encoding="UTF-8" standalone="no"?>
<!DOCTYPE svg PUBLIC "-//W3C//DTD SVG 1.1//EN"
 "http://www.w3.org/Graphics/SVG/1.1/DTD/svg11.dtd">
<!-- Generated by graphviz version 8.0.5 (20230430.1635)
 -->
<!-- Title: Flow Pages: 1 -->
<svg width="4576pt" height="616pt"
 viewBox="0.00 0.00 4576.18 616.00" xmlns="http://www.w3.org/2000/svg" xmlns:xlink="http://www.w3.org/1999/xlink">
<g id="graph0" class="graph" transform="scale(1 1) rotate(0) translate(4 612)">
<title>Flow</title>
<polygon fill="white" stroke="none" points="-4,4 -4,-612 4572.18,-612 4572.18,4 -4,4"/>
<g id="clust1" class="cluster">
<title>cluster_0</title>
</g>
<g id="clust2" class="cluster">
<title>cluster_1</title>
</g>
<!-- 8266 -->
<g id="node1" class="node">
<title>8266</title>
<ellipse fill="none" stroke="black" cx="960.23" cy="-187" rx="85.64" ry="18"/>
<text text-anchor="middle" x="960.23" y="-181.95" font-family="Times,serif" font-size="14.00">(*node.Node).Close</text>
</g>
<!-- 57931 -->
<g id="node2" class="node">
<title>57931</title>
<ellipse fill="none" stroke="black" cx="1410.67" cy="-217" rx="111.23" ry="18"/>
<text text-anchor="middle" x="1410.67" y="-211.95" font-family="Times,serif" font-size="14.00">(*node.Node).stopServices</text>
</g>
<!-- 8266&#45;&gt;57931 -->
<g id="edge1" class="edge">
<title>8266&#45;&gt;57931</title>
<path fill="none" stroke="black" d="M1042.44,-192.43C1113.46,-197.18 1217.32,-204.13 1296.49,-209.43"/>
<polygon fill="black" stroke="black" points="1295.79,-212.96 1306,-210.13 1296.25,-205.97 1295.79,-212.96"/>
<text text-anchor="middle" x="1178.4" y="-211.2" font-family="Times,serif" font-size="14.00">(*Node).stopServices(n, t12)</text>
</g>
<!-- 13111 -->
<g id="node14" class="node">
<title>13111</title>
<ellipse fill="none" stroke="black" cx="1835.39" cy="-349" rx="91.27" ry="18"/>
<text text-anchor="middle" x="1835.39" y="-343.95" font-family="Times,serif" font-size="14.00">(*eth.Ethereum).Stop</text>
</g>
<!-- 57931&#45;&gt;13111 -->
<g id="edge9" class="edge">
<title>57931&#45;&gt;13111</title>
<path fill="none" stroke="black" d="M1463.51,-233.19C1542.26,-257.78 1691.66,-304.43 1774.79,-330.39"/>
<polygon fill="black" stroke="black" points="1773.5,-333.96 1784.08,-333.6 1775.58,-327.28 1773.5,-333.96"/>
<text text-anchor="middle" x="1608.15" y="-301.2" font-family="Times,serif" font-size="14.00">invoke t9.Stop()</text>
</g>
<!-- 13117 -->
<g id="node3" class="node">
<title>13117</title>
<ellipse fill="none" stroke="black" cx="3844.96" cy="-466" rx="103.56" ry="18"/>
<text text-anchor="middle" x="3844.96" y="-460.95" font-family="Times,serif" font-size="14.00">(*core.BlockChain).Stop</text>
</g>
<!-- 46336 -->
<g id="node4" class="node">
<title>46336</title>
<ellipse fill="none" stroke="red" cx="4413.82" cy="-574" rx="97.93" ry="18"/>
<text text-anchor="middle" x="4413.82" y="-568.95" font-family="Times,serif" font-size="14.00">(*triedb.Database).Size</text>
</g>
<!-- 13117&#45;&gt;46336 -->
<g id="edge2" class="edge">
<title>13117&#45;&gt;46336</title>
<path fill="none" stroke="black" d="M3887.53,-482.8C3924.26,-496.97 3979.61,-516.71 4029.46,-528 4123.12,-549.2 4232.01,-561.08 4309.75,-567.43"/>
<polygon fill="black" stroke="black" points="4309.26,-570.98 4319.51,-568.29 4309.82,-564 4309.26,-570.98"/>
<text text-anchor="middle" x="4143.46" y="-565.2" font-family="Times,serif" font-size="14.00">(*triedb.Database).Size(t51)</text>
</g>
<!-- 32899 -->
<g id="node18" class="node">
<title>32899</title>
<ellipse fill="none" stroke="red" cx="4413.82" cy="-520" rx="111.74" ry="18"/>
<text text-anchor="middle" x="4413.82" y="-514.95" font-family="Times,serif" font-size="14.00">(*triedb.Database).Scheme</text>
</g>
<!-- 13117&#45;&gt;32899 -->
<g id="edge14" class="edge">
<title>13117&#45;&gt;32899</title>
<path fill="none" stroke="black" d="M3931.33,-476.27C3962.23,-479.86 3997.39,-483.79 4029.46,-487 4121.19,-496.2 4225.43,-505.07 4302.04,-511.29"/>
<polygon fill="black" stroke="black" points="4301.41,-514.83 4311.66,-512.15 4301.97,-507.86 4301.41,-514.83"/>
<text text-anchor="middle" x="4143.46" y="-510.2" font-family="Times,serif" font-size="14.00">(*triedb.Database).Scheme(t15)</text>
</g>
<!-- 58461 -->
<g id="node21" class="node">
<title>58461</title>
<ellipse fill="none" stroke="red" cx="4413.82" cy="-466" rx="109.19" ry="18"/>
<text text-anchor="middle" x="4413.82" y="-460.95" font-family="Times,serif" font-size="14.00">(*triedb.Database).Journal</text>
</g>
<!-- 13117&#45;&gt;58461 -->
<g id="edge17" class="edge">
<title>13117&#45;&gt;58461</title>
<path fill="none" stroke="black" d="M3948.94,-466C4045.95,-466 4191.25,-466 4293.32,-466"/>
<polygon fill="black" stroke="black" points="4293.3,-469.5 4303.3,-466 4293.3,-462.5 4293.3,-469.5"/>
<text text-anchor="middle" x="4143.46" y="-469.2" font-family="Times,serif" font-size="14.00">(*triedb.Database).Journal(t29, t32)</text>
</g>
<!-- 40713 -->
<g id="node22" class="node">
<title>40713</title>
<ellipse fill="none" stroke="red" cx="4413.82" cy="-412" rx="127.1" ry="18"/>
<text text-anchor="middle" x="4413.82" y="-406.95" font-family="Times,serif" font-size="14.00">(*triedb.Database).Dereference</text>
</g>
<!-- 13117&#45;&gt;40713 -->
<g id="edge19" class="edge">
<title>13117&#45;&gt;40713</title>
<path fill="none" stroke="black" d="M3931.8,-455.98C3962.58,-452.5 3997.56,-448.68 4029.46,-445.5 4117.06,-436.78 4216.05,-428.16 4291.49,-421.85"/>
<polygon fill="black" stroke="black" points="4291.77,-425.26 4301.45,-420.94 4291.19,-418.28 4291.77,-425.26"/>
<text text-anchor="middle" x="4143.46" y="-448.2" font-family="Times,serif" font-size="14.00">(*triedb.Database).Dereference(t51, t117)</text>
</g>
<!-- 41202 -->
<g id="node5" class="node">
<title>41202</title>
<ellipse fill="none" stroke="black" cx="2090.76" cy="-276" rx="66.19" ry="18"/>
<text text-anchor="middle" x="2090.76" y="-270.95" font-family="Times,serif" font-size="14.00">core/state.New</text>
</g>
<!-- 12100 -->
<g id="node6" class="node">
<title>12100</title>
<ellipse fill="none" stroke="black" cx="2661.26" cy="-304" rx="138.87" ry="18"/>
<text text-anchor="middle" x="2661.26" y="-298.95" font-family="Times,serif" font-size="14.00">(*core/state.cachingDB).OpenTrie</text>
</g>
<!-- 41202&#45;&gt;12100 -->
<g id="edge3" class="edge">
<title>41202&#45;&gt;12100</title>
<path fill="none" stroke="black" d="M2156.42,-279.18C2244.33,-283.51 2403.89,-291.37 2519.95,-297.09"/>
<polygon fill="black" stroke="black" points="2519.53,-300.62 2529.69,-297.62 2519.87,-293.63 2519.53,-300.62"/>
<text text-anchor="middle" x="2354.76" y="-298.2" font-family="Times,serif" font-size="14.00">invoke db.OpenTrie(root)</text>
</g>
<!-- 68785 -->
<g id="node10" class="node">
<title>68785</title>
<ellipse fill="none" stroke="black" cx="3232.17" cy="-354" rx="82.57" ry="18"/>
<text text-anchor="middle" x="3232.17" y="-348.95" font-family="Times,serif" font-size="14.00">trie.NewVerkleTrie</text>
</g>
<!-- 12100&#45;&gt;68785 -->
<g id="edge6" class="edge">
<title>12100&#45;&gt;68785</title>
<path fill="none" stroke="black" d="M2776.75,-314.32C2790.69,-315.56 2804.73,-316.81 2818.13,-318 2930.61,-327.95 3060.34,-339.23 3143.94,-346.46"/>
<polygon fill="black" stroke="black" points="3143.39,-350.02 3153.66,-347.39 3144,-343.04 3143.39,-350.02"/>
<text text-anchor="middle" x="2953.88" y="-344.2" font-family="Times,serif" font-size="14.00">trie.NewVerkleTrie(root, t6, t5)</text>
</g>
<!-- 33296 -->
<g id="node23" class="node">
<title>33296</title>
<ellipse fill="none" stroke="red" cx="4413.82" cy="-304" rx="112.77" ry="18"/>
<text text-anchor="middle" x="4413.82" y="-298.95" font-family="Times,serif" font-size="14.00">(*triedb.Database).IsVerkle</text>
</g>
<!-- 12100&#45;&gt;33296 -->
<g id="edge21" class="edge">
<title>12100&#45;&gt;33296</title>
<path fill="none" stroke="black" d="M2800.35,-304C3132.94,-304 3974.17,-304 4290.26,-304"/>
<polygon fill="black" stroke="black" points="4289.82,-307.5 4299.82,-304 4289.82,-300.5 4289.82,-307.5"/>
<text text-anchor="middle" x="3517.59" y="-307.2" font-family="Times,serif" font-size="14.00">(*triedb.Database).IsVerkle(t1)</text>
</g>
<!-- 41203 -->
<g id="node7" class="node">
<title>41203</title>
<ellipse fill="none" stroke="black" cx="3232.17" cy="-196" rx="124.54" ry="18"/>
<text text-anchor="middle" x="3232.17" y="-190.95" font-family="Times,serif" font-size="14.00">(*core/state.StateDB).Commit</text>
</g>
<!-- 60738 -->
<g id="node8" class="node">
<title>60738</title>
<ellipse fill="none" stroke="black" cx="3844.96" cy="-250" rx="104.07" ry="18"/>
<text text-anchor="middle" x="3844.96" y="-244.95" font-family="Times,serif" font-size="14.00">(*trie.StateTrie).Commit</text>
</g>
<!-- 41203&#45;&gt;60738 -->
<g id="edge4" class="edge">
<title>41203&#45;&gt;60738</title>
<path fill="none" stroke="black" d="M3335.59,-206.3C3348.75,-207.57 3362.05,-208.83 3374.71,-210 3499.95,-221.53 3644.1,-233.65 3739.22,-241.48"/>
<polygon fill="black" stroke="black" points="3738.75,-245.04 3749,-242.37 3739.32,-238.06 3738.75,-245.04"/>
<text text-anchor="middle" x="3517.59" y="-237.2" font-family="Times,serif" font-size="14.00">invoke t62.Commit(true:bool)</text>
</g>
<!-- 49385 -->
<g id="node13" class="node">
<title>49385</title>
<ellipse fill="none" stroke="red" cx="4413.82" cy="-196" rx="108.67" ry="18"/>
<text text-anchor="middle" x="4413.82" y="-190.95" font-family="Times,serif" font-size="14.00">(*triedb.Database).Update</text>
</g>
<!-- 41203&#45;&gt;49385 -->
<g id="edge8" class="edge">
<title>41203&#45;&gt;49385</title>
<path fill="none" stroke="black" d="M3357.18,-196C3585.48,-196 4069.39,-196 4293.85,-196"/>
<polygon fill="black" stroke="black" points="4293.67,-199.5 4303.67,-196 4293.67,-192.5 4293.67,-199.5"/>
<text text-anchor="middle" x="3844.96" y="-199.2" font-family="Times,serif" font-size="14.00">(*triedb.Database).Update(t200, t185, t190, block, t11, t197)</text>
</g>
<!-- 67906 -->
<g id="node9" class="node">
<title>67906</title>
<ellipse fill="none" stroke="red" cx="4413.82" cy="-250" rx="138.36" ry="18"/>
<text text-anchor="middle" x="4413.82" y="-244.95" font-family="Times,serif" font-size="14.00">(*triedb.Database).InsertPreimage</text>
</g>
<!-- 60738&#45;&gt;67906 -->
<g id="edge5" class="edge">
<title>60738&#45;&gt;67906</title>
<path fill="none" stroke="black" d="M3949.27,-250C4037.39,-250 4165.17,-250 4264.27,-250"/>
<polygon fill="black" stroke="black" points="4263.98,-253.5 4273.98,-250 4263.98,-246.5 4263.98,-253.5"/>
<text text-anchor="middle" x="4143.46" y="-253.2" font-family="Times,serif" font-size="14.00">invoke t19.InsertPreimage(t3)</text>
</g>
<!-- 20196 -->
<g id="node24" class="node">
<title>20196</title>
<ellipse fill="none" stroke="black" cx="3844.96" cy="-357" rx="82.57" ry="18"/>
<text text-anchor="middle" x="3844.96" y="-351.95" font-family="Times,serif" font-size="14.00">trie.newTrieReader</text>
</g>
<!-- 68785&#45;&gt;20196 -->
<g id="edge22" class="edge">
<title>68785&#45;&gt;20196</title>
<path fill="none" stroke="black" d="M3314.91,-354.4C3428.23,-354.96 3632.51,-355.96 3751.34,-356.55"/>
<polygon fill="black" stroke="black" points="3751.2,-360.05 3761.22,-356.6 3751.23,-353.05 3751.2,-360.05"/>
<text text-anchor="middle" x="3517.59" y="-359.2" font-family="Times,serif" font-size="14.00">newTrieReader(root, [32]byte{}:common.Hash, db)</text>
</g>
<!-- 11597 -->
<g id="node11" class="node">
<title>11597</title>
<ellipse fill="none" stroke="red" cx="105.74" cy="-105" rx="89.74" ry="18"/>
<text text-anchor="middle" x="105.74" y="-99.95" font-family="Times,serif" font-size="14.00">cmd/geth.initGenesis</text>
</g>
<!-- 11597&#45;&gt;8266 -->
<g id="edge13" class="edge">
<title>11597&#45;&gt;8266</title>
<path fill="none" stroke="black" d="M168.06,-118.29C182.87,-121.16 198.7,-123.95 213.47,-126 446.72,-158.38 723.58,-175.49 865.33,-182.72"/>
<polygon fill="black" stroke="black" points="864.96,-186.26 875.13,-183.26 865.32,-179.26 864.96,-186.26"/>
<text text-anchor="middle" x="367.6" y="-162.2" font-family="Times,serif" font-size="14.00">defer (*node.Node).Close(t30)</text>
</g>
<!-- 20404 -->
<g id="node12" class="node">
<title>20404</title>
<ellipse fill="none" stroke="black" cx="692.41" cy="-105" rx="152.69" ry="18"/>
<text text-anchor="middle" x="692.41" y="-99.95" font-family="Times,serif" font-size="14.00">core.SetupGenesisBlockWithOverride</text>
</g>
<!-- 11597&#45;&gt;20404 -->
<g id="edge7" class="edge">
<title>11597&#45;&gt;20404</title>
<path fill="none" stroke="black" d="M195.85,-105C283.94,-105 420.74,-105 528.31,-105"/>
<polygon fill="black" stroke="black" points="528.28,-108.5 538.28,-105 528.28,-101.5 528.28,-108.5"/>
<text text-anchor="middle" x="367.6" y="-108.2" font-family="Times,serif" font-size="14.00">core.SetupGenesisBlockWithOverride(t68, t81, t18, t32)</text>
</g>
<!-- 8282 -->
<g id="node17" class="node">
<title>8282</title>
<ellipse fill="none" stroke="red" cx="4413.82" cy="-34" rx="103.04" ry="18"/>
<text text-anchor="middle" x="4413.82" y="-28.95" font-family="Times,serif" font-size="14.00">(*triedb.Database).Close</text>
</g>
<!-- 11597&#45;&gt;8282 -->
<g id="edge12" class="edge">
<title>11597&#45;&gt;8282</title>
<path fill="none" stroke="black" d="M175.81,-93.48C284.97,-76.31 504.2,-46 691.41,-46 691.41,-46 691.41,-46 3845.96,-46 4004.14,-46 4187.09,-41.27 4301.38,-37.75"/>
<polygon fill="black" stroke="black" points="4301.34,-41.22 4311.23,-37.41 4301.12,-34.23 4301.34,-41.22"/>
<text text-anchor="middle" x="2090.76" y="-49.2" font-family="Times,serif" font-size="14.00">defer (*triedb.Database).Close(t81)</text>
</g>
<!-- 16891 -->
<g id="node15" class="node">
<title>16891</title>
<ellipse fill="none" stroke="black" cx="1178.4" cy="-152" rx="103.04" ry="18"/>
<text text-anchor="middle" x="1178.4" y="-146.95" font-family="Times,serif" font-size="14.00">(*core.Genesis).Commit</text>
</g>
<!-- 20404&#45;&gt;16891 -->
<g id="edge10" class="edge">
<title>20404&#45;&gt;16891</title>
<path fill="none" stroke="black" d="M812.12,-116.53C893.24,-124.41 999.59,-134.73 1076.6,-142.21"/>
<polygon fill="black" stroke="black" points="1075.97,-145.76 1086.26,-143.25 1076.65,-138.8 1075.97,-145.76"/>
<text text-anchor="middle" x="960.23" y="-142.2" font-family="Times,serif" font-size="14.00">(*Genesis).Commit(t20, db, triedb)</text>
</g>
<!-- 36719 -->
<g id="node19" class="node">
<title>36719</title>
<ellipse fill="none" stroke="red" cx="4413.82" cy="-88" rx="119.42" ry="18"/>
<text text-anchor="middle" x="4413.82" y="-82.95" font-family="Times,serif" font-size="14.00">(*triedb.Database).Initialized</text>
</g>
<!-- 20404&#45;&gt;36719 -->
<g id="edge15" class="edge">
<title>20404&#45;&gt;36719</title>
<path fill="none" stroke="black" d="M843.02,-101.72C938.65,-99.9 1065.32,-98 1177.4,-98 1177.4,-98 1177.4,-98 3845.96,-98 3996.74,-98 4170.04,-94.42 4284.92,-91.54"/>
<polygon fill="black" stroke="black" points="4284.94,-95.02 4294.85,-91.27 4284.77,-88.02 4284.94,-95.02"/>
<text text-anchor="middle" x="2354.76" y="-101.2" font-family="Times,serif" font-size="14.00">(*triedb.Database).Initialized(triedb, t37)</text>
</g>
<!-- 13111&#45;&gt;13117 -->
<g id="edge24" class="edge">
<title>13111&#45;&gt;13117</title>
<path fill="none" stroke="black" d="M1890.67,-363.73C1984.38,-387.82 2182.91,-433 2353.76,-433 2353.76,-433 2353.76,-433 3233.17,-433 3411.89,-433 3619.6,-447.26 3740.94,-457.03"/>
<polygon fill="black" stroke="black" points="3740.44,-460.59 3750.69,-457.91 3741.01,-453.61 3740.44,-460.59"/>
<text text-anchor="middle" x="2661.26" y="-436.2" font-family="Times,serif" font-size="14.00">(*core.BlockChain).Stop(t19)</text>
</g>
<!-- 16895 -->
<g id="node16" class="node">
<title>16895</title>
<ellipse fill="none" stroke="black" cx="1608.15" cy="-171" rx="68.24" ry="18"/>
<text text-anchor="middle" x="1608.15" y="-165.95" font-family="Times,serif" font-size="14.00">core.flushAlloc</text>
</g>
<!-- 16891&#45;&gt;16895 -->
<g id="edge18" class="edge">
<title>16891&#45;&gt;16895</title>
<path fill="none" stroke="black" d="M1278.88,-156.42C1355.26,-159.81 1459.22,-164.43 1529.53,-167.55"/>
<polygon fill="black" stroke="black" points="1529.37,-171.09 1539.51,-168.04 1529.68,-164.1 1529.37,-171.09"/>
<text text-anchor="middle" x="1410.67" y="-169.2" font-family="Times,serif" font-size="14.00">flushAlloc(t16, db, triedb, t17)</text>
</g>
<!-- 16895&#45;&gt;41202 -->
<g id="edge20" class="edge">
<title>16895&#45;&gt;41202</title>
<path fill="none" stroke="black" d="M1646.91,-186.24C1661.56,-191.75 1678.59,-197.68 1694.39,-202 1806.65,-232.7 1940.32,-254.79 2019.93,-266.47"/>
<polygon fill="black" stroke="black" points="2019.4,-270.07 2029.8,-268.05 2020.41,-263.15 2019.4,-270.07"/>
<text text-anchor="middle" x="1835.39" y="-262.2" font-family="Times,serif" font-size="14.00">core/state.New(t0, t1, nil:*core/state/snapshot.Tree)</text>
</g>
<!-- 16895&#45;&gt;41203 -->
<g id="edge11" class="edge">
<title>16895&#45;&gt;41203</title>
<path fill="none" stroke="black" d="M1676.78,-172.04C1921.96,-175.82 2767.07,-188.85 3097.37,-193.94"/>
<polygon fill="black" stroke="black" points="3096.9,-197.45 3106.95,-194.1 3097.01,-190.45 3096.9,-197.45"/>
<text text-anchor="middle" x="2354.76" y="-187.2" font-family="Times,serif" font-size="14.00">(*core/state.StateDB).Commit(t3, 0:uint64, false:bool)</text>
</g>
<!-- 46333 -->
<g id="node20" class="node">
<title>46333</title>
<ellipse fill="none" stroke="red" cx="4413.82" cy="-142" rx="113.28" ry="18"/>
<text text-anchor="middle" x="4413.82" y="-136.95" font-family="Times,serif" font-size="14.00">(*triedb.Database).Commit</text>
</g>
<!-- 16895&#45;&gt;46333 -->
<g id="edge16" class="edge">
<title>16895&#45;&gt;46333</title>
<path fill="none" stroke="black" d="M1673.62,-165.51C1765.8,-158.15 1940.62,-146 2089.76,-146 2089.76,-146 2089.76,-146 3845.96,-146 3998.74,-146 4174.68,-144.53 4289.51,-143.37"/>
<polygon fill="black" stroke="black" points="4289.46,-146.86 4299.43,-143.26 4289.39,-139.86 4289.46,-146.86"/>
<text text-anchor="middle" x="2953.88" y="-149.2" font-family="Times,serif" font-size="14.00">(*triedb.Database).Commit(triedb, t17, true:bool)</text>
</g>
<!-- 43858 -->
<g id="node25" class="node">
<title>43858</title>
<ellipse fill="none" stroke="red" cx="4413.82" cy="-358" rx="108.16" ry="18"/>
<text text-anchor="middle" x="4413.82" y="-352.95" font-family="Times,serif" font-size="14.00">(*triedb.Database).Reader</text>
</g>
<!-- 20196&#45;&gt;43858 -->
<g id="edge23" class="edge">
<title>20196&#45;&gt;43858</title>
<path fill="none" stroke="black" d="M3927.78,-357.14C4024.07,-357.31 4184.72,-357.6 4294.55,-357.79"/>
<polygon fill="black" stroke="black" points="4294.34,-361.29 4304.35,-357.81 4294.35,-354.29 4294.34,-361.29"/>
<text text-anchor="middle" x="4143.46" y="-360.2" font-family="Times,serif" font-size="14.00">invoke db.Reader(stateRoot)</text>
</g>
</g>
</svg>
