<?xml version="1.0" encoding="UTF-8" standalone="no"?>
<!DOCTYPE svg PUBLIC "-//W3C//DTD SVG 1.1//EN"
 "http://www.w3.org/Graphics/SVG/1.1/DTD/svg11.dtd">
<!-- Generated by graphviz version 8.0.5 (20230430.1635)
 -->
<!-- Title: Flow Pages: 1 -->
<svg width="1210pt" height="654pt"
 viewBox="0.00 0.00 1210.19 653.55" xmlns="http://www.w3.org/2000/svg" xmlns:xlink="http://www.w3.org/1999/xlink">
<g id="graph0" class="graph" transform="scale(1 1) rotate(0) translate(4 649.55)">
<title>Flow</title>
<polygon fill="white" stroke="none" points="-4,4 -4,-649.55 1206.19,-649.55 1206.19,4 -4,4"/>
<g id="clust1" class="cluster">
<title>cluster_0</title>
</g>
<g id="clust2" class="cluster">
<title>cluster_1</title>
</g>
<!-- 11597 -->
<g id="node1" class="node">
<title>11597</title>
<ellipse fill="none" stroke="red" cx="105.74" cy="-341.55" rx="89.74" ry="18"/>
<text text-anchor="middle" x="105.74" y="-336.5" font-family="Times,serif" font-size="14.00">cmd/geth.initGenesis</text>
</g>
<!-- 40713 -->
<g id="node2" class="node">
<title>40713</title>
<ellipse fill="none" stroke="red" cx="1047.83" cy="-611.55" rx="127.1" ry="18"/>
<text text-anchor="middle" x="1047.83" y="-606.5" font-family="Times,serif" font-size="14.00">(*triedb.Database).Dereference</text>
</g>
<!-- 11597&#45;&gt;40713 -->
<g id="edge1" class="edge">
<title>11597&#45;&gt;40713</title>
<path fill="none" stroke="black" d="M108.76,-359.96C114.9,-405.7 137.75,-524.52 213.47,-575.55 269.63,-613.4 688.68,-615.16 910.3,-613.36"/>
<polygon fill="black" stroke="black" points="910.06,-616.85 920.03,-613.27 910,-609.85 910.06,-616.85"/>
<text text-anchor="middle" x="552.47" y="-616.75" font-family="Times,serif" font-size="14.00">defer (*node.Node).Close(t30)&#45;&gt;...&#45;&gt;(*triedb.Database).Dereference(t51, t117)</text>
</g>
<!-- 8282 -->
<g id="node3" class="node">
<title>8282</title>
<ellipse fill="none" stroke="red" cx="1047.83" cy="-557.55" rx="103.04" ry="18"/>
<text text-anchor="middle" x="1047.83" y="-552.5" font-family="Times,serif" font-size="14.00">(*triedb.Database).Close</text>
</g>
<!-- 11597&#45;&gt;8282 -->
<g id="edge2" class="edge">
<title>11597&#45;&gt;8282</title>
<path fill="none" stroke="black" d="M111.35,-359.97C121.96,-398.02 152.06,-484.79 213.47,-521.55 273.66,-557.58 720.12,-559.69 933.67,-558.59"/>
<polygon fill="black" stroke="black" points="933.61,-562.09 943.59,-558.53 933.57,-555.09 933.61,-562.09"/>
<text text-anchor="middle" x="552.47" y="-561.75" font-family="Times,serif" font-size="14.00">defer (*triedb.Database).Close(t81)</text>
</g>
<!-- 46333 -->
<g id="node4" class="node">
<title>46333</title>
<ellipse fill="none" stroke="red" cx="1047.83" cy="-503.55" rx="113.28" ry="18"/>
<text text-anchor="middle" x="1047.83" y="-498.5" font-family="Times,serif" font-size="14.00">(*triedb.Database).Commit</text>
</g>
<!-- 11597&#45;&gt;46333 -->
<g id="edge3" class="edge">
<title>11597&#45;&gt;46333</title>
<path fill="none" stroke="black" d="M115.53,-359.55C130.84,-388.58 165.4,-444.92 213.47,-468.55 275.37,-498.98 706.76,-503.51 923.35,-503.83"/>
<polygon fill="black" stroke="black" points="923.13,-507.33 933.14,-503.84 923.14,-500.33 923.13,-507.33"/>
<text text-anchor="middle" x="552.47" y="-506.75" font-family="Times,serif" font-size="14.00">core.SetupGenesisBlockWithOverride(t68, t81, t18, t32)&#45;&gt;...&#45;&gt;(*triedb.Database).Commit(triedb, t17, true:bool)</text>
</g>
<!-- 46336 -->
<g id="node5" class="node">
<title>46336</title>
<ellipse fill="none" stroke="red" cx="1047.83" cy="-449.55" rx="97.93" ry="18"/>
<text text-anchor="middle" x="1047.83" y="-444.5" font-family="Times,serif" font-size="14.00">(*triedb.Database).Size</text>
</g>
<!-- 11597&#45;&gt;46336 -->
<g id="edge4" class="edge">
<title>11597&#45;&gt;46336</title>
<path fill="none" stroke="black" d="M124.92,-359.37C144.79,-377.56 178.5,-404.73 213.47,-416.55 280.34,-439.16 728.8,-446.47 938.77,-448.68"/>
<polygon fill="black" stroke="black" points="938.47,-452.18 948.51,-448.79 938.54,-445.18 938.47,-452.18"/>
<text text-anchor="middle" x="552.47" y="-450.75" font-family="Times,serif" font-size="14.00">defer (*node.Node).Close(t30)&#45;&gt;...&#45;&gt;(*triedb.Database).Size(t51)</text>
</g>
<!-- 32899 -->
<g id="node6" class="node">
<title>32899</title>
<ellipse fill="none" stroke="red" cx="1047.83" cy="-395.55" rx="111.74" ry="18"/>
<text text-anchor="middle" x="1047.83" y="-390.5" font-family="Times,serif" font-size="14.00">(*triedb.Database).Scheme</text>
</g>
<!-- 11597&#45;&gt;32899 -->
<g id="edge5" class="edge">
<title>11597&#45;&gt;32899</title>
<path fill="none" stroke="black" d="M166.88,-355.07C182.02,-358.01 198.28,-360.77 213.47,-362.55 465.35,-392.14 762.68,-396.69 925.35,-396.61"/>
<polygon fill="black" stroke="black" points="924.87,-400.11 934.87,-396.6 924.87,-393.11 924.87,-400.11"/>
<text text-anchor="middle" x="552.47" y="-398.75" font-family="Times,serif" font-size="14.00">defer (*node.Node).Close(t30)&#45;&gt;...&#45;&gt;(*triedb.Database).Scheme(t15)</text>
</g>
<!-- 49385 -->
<g id="node7" class="node">
<title>49385</title>
<ellipse fill="none" stroke="red" cx="1047.83" cy="-341.55" rx="108.67" ry="18"/>
<text text-anchor="middle" x="1047.83" y="-336.5" font-family="Times,serif" font-size="14.00">(*triedb.Database).Update</text>
</g>
<!-- 11597&#45;&gt;49385 -->
<g id="edge6" class="edge">
<title>11597&#45;&gt;49385</title>
<path fill="none" stroke="black" d="M195.6,-341.55C365.54,-341.55 736.66,-341.55 927.8,-341.55"/>
<polygon fill="black" stroke="black" points="927.73,-345.05 937.73,-341.55 927.73,-338.05 927.73,-345.05"/>
<text text-anchor="middle" x="552.47" y="-344.75" font-family="Times,serif" font-size="14.00">core.SetupGenesisBlockWithOverride(t68, t81, t18, t32)&#45;&gt;...&#45;&gt;(*triedb.Database).Update(t200, t185, t190, block, t11, t197)</text>
</g>
<!-- 58461 -->
<g id="node8" class="node">
<title>58461</title>
<ellipse fill="none" stroke="red" cx="1047.83" cy="-287.55" rx="109.19" ry="18"/>
<text text-anchor="middle" x="1047.83" y="-282.5" font-family="Times,serif" font-size="14.00">(*triedb.Database).Journal</text>
</g>
<!-- 11597&#45;&gt;58461 -->
<g id="edge7" class="edge">
<title>11597&#45;&gt;58461</title>
<path fill="none" stroke="black" d="M167.74,-328.21C182.63,-325.4 198.57,-322.77 213.47,-321.05 466.57,-291.83 765.45,-286.95 927.6,-286.76"/>
<polygon fill="black" stroke="black" points="927.56,-290.26 937.56,-286.75 927.56,-283.26 927.56,-290.26"/>
<text text-anchor="middle" x="552.47" y="-323.75" font-family="Times,serif" font-size="14.00">defer (*node.Node).Close(t30)&#45;&gt;...&#45;&gt;(*triedb.Database).Journal(t29, t32)</text>
</g>
<!-- 33296 -->
<g id="node9" class="node">
<title>33296</title>
<ellipse fill="none" stroke="red" cx="1047.83" cy="-233.55" rx="112.77" ry="18"/>
<text text-anchor="middle" x="1047.83" y="-228.5" font-family="Times,serif" font-size="14.00">(*triedb.Database).IsVerkle</text>
</g>
<!-- 11597&#45;&gt;33296 -->
<g id="edge8" class="edge">
<title>11597&#45;&gt;33296</title>
<path fill="none" stroke="black" d="M124.89,-323.61C144.75,-305.3 178.44,-277.95 213.47,-266.05 341.71,-222.52 727.49,-225.25 925.97,-229.88"/>
<polygon fill="black" stroke="black" points="925.65,-233.4 935.73,-230.14 925.82,-226.4 925.65,-233.4"/>
<text text-anchor="middle" x="552.47" y="-268.75" font-family="Times,serif" font-size="14.00">core.SetupGenesisBlockWithOverride(t68, t81, t18, t32)&#45;&gt;...&#45;&gt;(*triedb.Database).IsVerkle(t1)</text>
</g>
<!-- 67906 -->
<g id="node10" class="node">
<title>67906</title>
<ellipse fill="none" stroke="red" cx="1047.83" cy="-179.55" rx="138.36" ry="18"/>
<text text-anchor="middle" x="1047.83" y="-174.5" font-family="Times,serif" font-size="14.00">(*triedb.Database).InsertPreimage</text>
</g>
<!-- 11597&#45;&gt;67906 -->
<g id="edge9" class="edge">
<title>11597&#45;&gt;67906</title>
<path fill="none" stroke="black" d="M114.69,-323.32C129.21,-292.61 163.22,-231.43 213.47,-206.05 272.83,-176.08 676.28,-175.48 899.31,-177.53"/>
<polygon fill="black" stroke="black" points="899.09,-181.04 909.13,-177.63 899.16,-174.04 899.09,-181.04"/>
<text text-anchor="middle" x="552.47" y="-208.75" font-family="Times,serif" font-size="14.00">core.SetupGenesisBlockWithOverride(t68, t81, t18, t32)&#45;&gt;...&#45;&gt;invoke t19.InsertPreimage(t3)</text>
</g>
<!-- 43858 -->
<g id="node11" class="node">
<title>43858</title>
<ellipse fill="none" stroke="red" cx="1047.83" cy="-125.55" rx="108.16" ry="18"/>
<text text-anchor="middle" x="1047.83" y="-120.5" font-family="Times,serif" font-size="14.00">(*triedb.Database).Reader</text>
</g>
<!-- 11597&#45;&gt;43858 -->
<g id="edge10" class="edge">
<title>11597&#45;&gt;43858</title>
<path fill="none" stroke="black" d="M110.99,-323.15C121.08,-284.23 150.47,-194.04 213.47,-156.05 273.1,-120.1 713.72,-120.96 929.05,-123.61"/>
<polygon fill="black" stroke="black" points="928.71,-127.11 938.76,-123.74 928.8,-120.11 928.71,-127.11"/>
<text text-anchor="middle" x="552.47" y="-158.75" font-family="Times,serif" font-size="14.00">core.SetupGenesisBlockWithOverride(t68, t81, t18, t32)&#45;&gt;...&#45;&gt;invoke db.Reader(stateRoot)</text>
</g>
<!-- 36719 -->
<g id="node12" class="node">
<title>36719</title>
<ellipse fill="none" stroke="red" cx="1047.83" cy="-71.55" rx="119.42" ry="18"/>
<text text-anchor="middle" x="1047.83" y="-66.5" font-family="Times,serif" font-size="14.00">(*triedb.Database).Initialized</text>
</g>
<!-- 11597&#45;&gt;36719 -->
<g id="edge11" class="edge">
<title>11597&#45;&gt;36719</title>
<path fill="none" stroke="black" d="M108.48,-323.3C114.01,-276.76 135.69,-153.61 213.47,-101.05 454.49,61.81 830.54,-12.81 981.19,-52.45"/>
<polygon fill="black" stroke="black" points="980.07,-56.04 990.64,-55.24 981.88,-49.28 980.07,-56.04"/>
<text text-anchor="middle" x="552.47" y="-103.75" font-family="Times,serif" font-size="14.00">core.SetupGenesisBlockWithOverride(t68, t81, t18, t32)&#45;&gt;...&#45;&gt;(*triedb.Database).Initialized(triedb, t37)</text>
</g>
</g>
</svg>
